<svg width="382" height="69" viewBox="0 0 382 69" fill="none" xmlns="http://www.w3.org/2000/svg">
<g clip-path="url(#clip0_55547_784)">
<rect width="382" height="69" fill="white"/>
<path d="M343.504 69.0418C336.858 69.0418 331.018 67.5917 325.986 64.6914C320.953 61.7267 317.017 57.634 314.178 52.4135C311.404 47.1286 310.016 41.0057 310.016 34.0451C310.016 27.1488 311.404 21.0905 314.178 15.87C317.017 10.585 320.953 6.46017 325.986 3.49544C331.018 0.530706 336.858 -0.95166 343.504 -0.95166C350.214 -0.95166 356.053 0.530706 361.021 3.49544C366.054 6.46017 369.958 10.585 372.732 15.87C375.571 21.0905 376.991 27.1488 376.991 34.0451C376.991 41.0057 375.571 47.1286 372.732 52.4135C369.958 57.634 366.054 61.7267 361.021 64.6914C356.053 67.5917 350.214 69.0418 343.504 69.0418ZM343.504 61.3077C348.407 61.3077 352.698 60.2443 356.376 58.1174C360.054 55.9261 362.925 52.8002 364.99 48.7398C367.054 44.615 368.087 39.7167 368.087 34.0451C368.087 28.3734 367.054 23.5074 364.99 19.447C362.925 15.3866 360.054 12.2607 356.376 10.0694C352.698 7.87808 348.407 6.78242 343.504 6.78242C338.664 6.78242 334.374 7.87808 330.631 10.0694C326.954 12.2607 324.082 15.3866 322.018 19.447C320.017 23.5074 319.017 28.3734 319.017 34.0451C319.017 39.7167 320.017 44.615 322.018 48.7398C324.082 52.8002 326.954 55.9261 330.631 58.1174C334.374 60.2443 338.664 61.3077 343.504 61.3077ZM374.571 67.8817C373.41 67.8817 372.41 67.7528 371.571 67.495C370.797 67.1727 370.022 66.5604 369.248 65.6581L347.859 41.8758L353.279 37.1387L373.216 58.8908C373.861 59.4709 374.378 59.8576 374.765 60.0509C375.152 60.1798 375.829 60.2443 376.797 60.2443H381.927V67.8817H374.571Z" fill="black"/>
<path d="M295.043 67.8817V0.208449H303.754V67.8817H295.043Z" fill="black"/>
<path d="M237.483 69.0418C234.063 69.0418 230.805 68.5906 227.708 67.6883C224.611 66.786 221.836 65.4326 219.385 63.6279C216.933 61.8233 214.933 59.5353 213.384 56.7639C211.9 53.9281 211.061 50.6089 210.868 46.8063H219.385C219.707 50.2866 220.707 53.1225 222.385 55.3138C224.062 57.4407 226.224 59.0197 228.869 60.0509C231.579 61.0177 234.483 61.5011 237.58 61.5011C240.483 61.5011 243.161 61.0821 245.613 60.2443C248.065 59.4064 250 58.0852 251.42 56.2806C252.904 54.4115 253.646 52.0268 253.646 49.1265C253.646 46.613 252.904 44.3894 251.42 42.4559C250 40.5224 247.355 39.2011 243.484 38.4922L229.934 35.9786C225.03 35.0763 221.062 33.0783 218.03 29.9847C214.997 26.8266 213.481 23.024 213.481 18.5769C213.481 14.4521 214.545 10.9395 216.675 8.03921C218.868 5.13893 221.74 2.91538 225.288 1.36856C228.902 -0.178252 232.773 -0.95166 236.902 -0.95166C241.29 -0.95166 245.226 -0.178252 248.71 1.36856C252.194 2.85093 255.001 5.1067 257.13 8.13589C259.324 11.1006 260.614 14.8065 261.002 19.2536H252.388C252.065 16.2889 251.194 13.9042 249.775 12.0996C248.42 10.2305 246.645 8.84485 244.452 7.94254C242.258 7.04023 239.774 6.58907 236.999 6.58907C234.289 6.58907 231.805 7.008 229.547 7.84586C227.289 8.68372 225.45 9.94051 224.03 11.6162C222.611 13.2919 221.901 15.4188 221.901 17.9968C221.901 20.6393 222.869 22.8629 224.804 24.6675C226.74 26.4077 229.321 27.6 232.547 28.2445L245.323 30.5647C250.807 31.5959 254.969 33.6584 257.808 36.752C260.711 39.8456 262.163 43.8416 262.163 48.7398C262.163 52.2202 261.453 55.2171 260.034 57.7307C258.679 60.2443 256.84 62.3389 254.517 64.0146C252.194 65.6904 249.549 66.9472 246.581 67.785C243.677 68.6229 240.645 69.0418 237.483 69.0418Z" fill="black"/>
<path d="M184.145 69.0418C180.725 69.0418 177.467 68.5906 174.37 67.6883C171.273 66.786 168.498 65.4326 166.046 63.6279C163.595 61.8233 161.594 59.5353 160.046 56.7639C158.562 53.9281 157.723 50.6089 157.529 46.8063H166.046C166.369 50.2866 167.369 53.1225 169.047 55.3138C170.724 57.4407 172.886 59.0197 175.531 60.0509C178.241 61.0177 181.145 61.5011 184.242 61.5011C187.145 61.5011 189.823 61.0821 192.275 60.2443C194.727 59.4064 196.662 58.0852 198.082 56.2806C199.566 54.4115 200.308 52.0268 200.308 49.1265C200.308 46.613 199.566 44.3894 198.082 42.4559C196.662 40.5224 194.017 39.2011 190.146 38.4922L176.596 35.9786C171.692 35.0763 167.724 33.0783 164.691 29.9847C161.659 26.8266 160.143 23.024 160.143 18.5769C160.143 14.4521 161.207 10.9395 163.337 8.03921C165.53 5.13893 168.402 2.91538 171.95 1.36856C175.563 -0.178252 179.435 -0.95166 183.564 -0.95166C187.952 -0.95166 191.888 -0.178252 195.372 1.36856C198.856 2.85093 201.663 5.1067 203.792 8.13589C205.986 11.1006 207.276 14.8065 207.663 19.2536H199.05C198.727 16.2889 197.856 13.9042 196.437 12.0996C195.082 10.2305 193.307 8.84485 191.113 7.94254C188.92 7.04023 186.436 6.58907 183.661 6.58907C180.951 6.58907 178.467 7.008 176.209 7.84586C173.95 8.68372 172.112 9.94051 170.692 11.6162C169.273 13.2919 168.563 15.4188 168.563 17.9968C168.563 20.6393 169.531 22.8629 171.466 24.6675C173.402 26.4077 175.983 27.6 179.209 28.2445L191.984 30.5647C197.469 31.5959 201.631 33.6584 204.47 36.752C207.373 39.8456 208.825 43.8416 208.825 48.7398C208.825 52.2202 208.115 55.2171 206.696 57.7307C205.341 60.2443 203.502 62.3389 201.179 64.0146C198.856 65.6904 196.211 66.9472 193.243 67.785C190.339 68.6229 187.307 69.0418 184.145 69.0418Z" fill="black"/>
<path d="M123.031 69.0418C116.385 69.0418 110.546 67.5917 105.513 64.6914C100.48 61.7267 96.5444 57.634 93.7054 52.4135C90.931 47.1286 89.5437 41.0057 89.5437 34.0451C89.5437 27.1488 90.931 21.0905 93.7054 15.87C96.5444 10.585 100.48 6.46017 105.513 3.49544C110.546 0.530706 116.385 -0.95166 123.031 -0.95166C129.741 -0.95166 135.581 0.530706 140.549 3.49544C145.581 6.46017 149.485 10.585 152.26 15.87C155.099 21.0905 156.518 27.1488 156.518 34.0451C156.518 41.0057 155.099 47.1286 152.26 52.4135C149.485 57.634 145.581 61.7267 140.549 64.6914C135.581 67.5917 129.741 69.0418 123.031 69.0418ZM123.031 61.3077C127.935 61.3077 132.225 60.2443 135.903 58.1174C139.581 55.9261 142.452 52.8002 144.517 48.7398C146.582 44.615 147.614 39.7167 147.614 34.0451C147.614 28.3734 146.582 23.5074 144.517 19.447C142.452 15.3866 139.581 12.2607 135.903 10.0694C132.225 7.87808 127.935 6.78242 123.031 6.78242C118.192 6.78242 113.901 7.87808 110.159 10.0694C106.481 12.2607 103.61 15.3866 101.545 19.447C99.5447 23.5074 98.5446 28.3734 98.5446 34.0451C98.5446 39.7167 99.5447 44.615 101.545 48.7398C103.61 52.8002 106.481 55.9261 110.159 58.1174C113.901 60.2443 118.192 61.3077 123.031 61.3077Z" fill="black"/>
<path d="M68.4094 68.8656H0V37.667L37.1721 0.536234H68.4094V68.8656Z" fill="black"/>
<path d="M38.4402 26.2827C42.1751 25.5412 46.0459 25.9256 49.5615 27.3802C53.0789 28.8359 56.0832 31.3003 58.1978 34.461C60.3118 37.6213 61.446 41.3378 61.4468 45.1411L61.4271 45.9829C61.2827 49.2991 60.2672 52.507 58.505 55.2981L70.0792 66.9105L63.9829 73L52.3575 61.4387C49.3286 63.3468 45.8087 64.3792 42.1932 64.3772L42.1893 64.3733C38.3817 64.3725 34.6611 63.2435 31.4972 61.1318C28.333 59.0196 25.8659 56.0186 24.4086 52.5051C22.9524 48.9935 22.5676 45.1269 23.3098 41.3962C24.0527 37.6657 25.8867 34.2354 28.5791 31.5461C31.2714 28.8567 34.7055 27.0247 38.4402 26.2827ZM46.2534 35.3461C44.3143 34.5443 42.181 34.3312 40.1217 34.7403C38.0619 35.1495 36.1683 36.1599 34.6832 37.6434C33.198 39.1269 32.1866 41.0184 31.7768 43.0759C31.3673 45.1329 31.5807 47.2638 32.3833 49.2008L32.7102 49.9167C33.5332 51.5479 34.7662 52.9449 36.2939 53.9645C38.0393 55.1294 40.0908 55.7458 42.1893 55.7465C45.0052 55.7434 47.7038 54.6282 49.6954 52.6389C51.6861 50.6503 52.8064 47.9567 52.8104 45.1451L52.7829 44.3622C52.6478 42.5404 52.0437 40.7791 51.0225 39.2523C49.8557 37.5079 48.1938 36.1489 46.2534 35.3461Z" fill="white"/>
</g>
<defs>
<clipPath id="clip0_55547_784">
<rect width="382" height="69" fill="white"/>
</clipPath>
</defs>
</svg>
