<svg width="382" height="70" viewBox="0 0 382 70" fill="none" xmlns="http://www.w3.org/2000/svg">
<g clip-path="url(#clip0_55568_843)">
<path d="M68.4092 66.2344L58.5049 56.2979C60.267 53.5069 61.2823 50.2993 61.4268 46.9834L61.4463 46.1416C61.4455 42.3383 60.3122 38.6213 58.1982 35.4609C56.0836 32.3002 53.079 29.8356 49.5615 28.3799C48.463 27.9254 47.3297 27.5759 46.1768 27.332C45.7154 27.2345 45.2509 27.1533 44.7842 27.0898C42.6849 26.8044 40.5411 26.8652 38.4404 27.2822C36.3397 27.6996 34.334 28.4626 32.502 29.5283C32.0947 29.7652 31.6959 30.0168 31.3066 30.2832C30.334 30.949 29.4203 31.7056 28.5791 32.5459C25.8868 35.2352 24.0524 38.666 23.3096 42.3965C22.9385 44.2619 22.8497 46.1612 23.0352 48.0332C23.0815 48.5011 23.145 48.9672 23.2256 49.4307C23.4674 50.8213 23.8622 52.1881 24.4082 53.5049C25.5923 56.3596 27.4433 58.8763 29.793 60.8525C30.1544 61.1566 30.5276 61.4479 30.9121 61.7256C31.1043 61.8644 31.2993 61.9998 31.4971 62.1318C34.6609 64.2435 38.3819 65.3723 42.1895 65.373L42.1934 65.377C44.6789 65.3783 47.119 64.8906 49.3857 63.9658C49.7979 63.7977 50.2046 63.6157 50.6045 63.4189C51.2044 63.1238 51.7894 62.7963 52.3574 62.4385L63.9834 74L59.8252 69.8652H0V38.667L37.1719 1.53613H68.4092V66.2344ZM123.031 0.0478516C129.741 0.0479055 135.581 1.53047 140.549 4.49512C145.582 7.45985 149.485 11.5852 152.26 16.8701C155.099 22.0905 156.518 28.1488 156.518 35.0449C156.518 42.0054 155.099 48.1282 152.26 53.4131C149.485 58.6336 145.582 62.7267 140.549 65.6914C135.581 68.5916 129.741 70.0419 123.031 70.042C116.385 70.042 110.545 68.5917 105.513 65.6914C100.48 62.7267 96.544 58.6335 93.7051 53.4131C90.9308 48.1282 89.5439 42.0054 89.5439 35.0449C89.544 28.1489 90.9307 22.0905 93.7051 16.8701C96.544 11.5852 100.48 7.45984 105.513 4.49512C110.545 1.53038 116.385 0.0478516 123.031 0.0478516ZM183.564 0.0478516C187.952 0.0478713 191.888 0.82137 195.372 2.36816C198.856 3.85051 201.663 6.10663 203.792 9.13574C205.986 12.1005 207.276 15.8068 207.663 20.2539H199.05C198.727 17.2892 197.856 14.9042 196.437 13.0996C195.082 11.2305 193.307 9.84469 191.113 8.94238C188.92 8.04013 186.435 7.58888 183.661 7.58887C180.951 7.58887 178.467 8.00792 176.209 8.8457C173.951 9.68353 172.112 10.9406 170.692 12.6162C169.273 14.2919 168.562 16.419 168.562 18.9971C168.563 21.6394 169.531 23.8634 171.467 25.668C173.402 27.4079 175.983 28.5997 179.209 29.2441L191.984 31.5645C197.469 32.5957 201.631 34.6583 204.47 37.752C207.373 40.8456 208.825 44.842 208.825 49.7402C208.825 53.2204 208.115 56.217 206.695 58.7305C205.34 61.244 203.502 63.3389 201.179 65.0146C198.856 66.6903 196.21 67.9473 193.242 68.7852C190.339 69.6229 187.306 70.042 184.145 70.042C180.725 70.042 177.467 69.5907 174.37 68.6885C171.273 67.7862 168.499 66.4324 166.047 64.6279C163.595 62.8233 161.594 60.5351 160.046 57.7637C158.562 54.928 157.723 51.609 157.529 47.8066H166.047C166.37 51.2867 167.369 54.1223 169.047 56.3135C170.724 58.4403 172.886 60.0196 175.531 61.0508C178.241 62.0175 181.145 62.501 184.242 62.501C187.145 62.5009 189.823 62.0819 192.274 61.2441C194.726 60.4063 196.663 59.0849 198.082 57.2803C199.566 55.4113 200.308 53.0269 200.308 50.127C200.308 47.6135 199.566 45.3895 198.082 43.4561C196.663 41.5225 194.017 40.2011 190.146 39.4922L176.596 36.9785C171.692 36.0762 167.724 34.078 164.691 30.9844C161.659 27.8264 160.143 24.0241 160.143 19.5771C160.143 15.4523 161.208 11.9393 163.337 9.03906C165.531 6.13892 168.402 3.91493 171.95 2.36816C175.563 0.821378 179.435 0.0478516 183.564 0.0478516ZM236.902 0.0478516C241.29 0.0478516 245.226 0.821411 248.71 2.36816C252.194 3.85049 255.001 6.10668 257.13 9.13574C259.324 12.1005 260.615 15.8068 261.002 20.2539H252.388C252.065 17.2892 251.194 14.9042 249.774 13.0996C248.419 11.2306 246.645 9.84467 244.451 8.94238C242.257 8.04017 239.773 7.58887 236.999 7.58887C234.289 7.58888 231.805 8.00788 229.547 8.8457C227.289 9.68355 225.45 10.9405 224.03 12.6162C222.611 14.2919 221.901 16.419 221.901 18.9971C221.901 21.6394 222.869 23.8634 224.805 25.668C226.74 27.4079 229.321 28.5997 232.547 29.2441L245.322 31.5645C250.807 32.5957 254.969 34.6584 257.808 37.752C260.711 40.8456 262.163 44.842 262.163 49.7402C262.163 53.2202 261.453 56.2171 260.034 58.7305C258.679 61.244 256.839 63.3389 254.517 65.0146C252.194 66.6902 249.549 67.9473 246.581 68.7852C243.678 69.623 240.645 70.042 237.483 70.042C234.064 70.042 230.805 69.5908 227.708 68.6885C224.611 67.7862 221.837 66.4325 219.385 64.6279C216.933 62.8233 214.932 60.5351 213.384 57.7637C211.9 54.928 211.061 51.609 210.867 47.8066H219.385C219.707 51.2867 220.707 54.1223 222.385 56.3135C224.062 58.4403 226.224 60.0196 228.869 61.0508C231.579 62.0175 234.483 62.501 237.58 62.501C240.484 62.501 243.161 62.082 245.613 61.2441C248.065 60.4063 250 59.0848 251.42 57.2803C252.904 55.4113 253.646 53.027 253.646 50.127C253.646 47.6134 252.904 45.3896 251.42 43.4561C250 41.5225 247.355 40.2011 243.483 39.4922L229.934 36.9785C225.03 36.0762 221.062 34.0779 218.029 30.9844C214.997 27.8264 213.481 24.024 213.48 19.5771C213.48 15.4523 214.546 11.9393 216.675 9.03906C218.869 6.1389 221.739 3.91495 225.288 2.36816C228.901 0.821357 232.773 0.0478611 236.902 0.0478516ZM343.504 0.0478516C350.214 0.047901 356.053 1.53047 361.021 4.49512C366.054 7.45985 369.958 11.5852 372.732 16.8701C375.571 22.0905 376.991 28.1488 376.991 35.0449C376.991 42.0054 375.571 48.1282 372.732 53.4131C372.067 54.6646 371.336 55.8508 370.541 56.9727L373.216 59.8906C373.861 60.4706 374.378 60.8574 374.765 61.0508C375.152 61.1797 375.829 61.2441 376.797 61.2441H381.927V68.8818H374.571C373.41 68.8818 372.41 68.7528 371.571 68.4951C370.797 68.1729 370.022 67.5605 369.248 66.6582L365.506 62.4971C364.126 63.677 362.632 64.7425 361.021 65.6914C356.053 68.5916 350.214 70.0419 343.504 70.042C336.858 70.042 331.018 68.5917 325.985 65.6914C320.953 62.7267 317.017 58.6335 314.178 53.4131C311.403 48.1282 310.017 42.0054 310.017 35.0449C310.017 28.1489 311.403 22.0905 314.178 16.8701C317.017 11.5852 320.953 7.45984 325.985 4.49512C331.018 1.53038 336.858 0.0478516 343.504 0.0478516ZM68.4092 69.5781V69.8652H68.1221L68.4092 69.5781ZM303.754 68.8818H295.043V1.20801H303.754V68.8818ZM123.031 7.78223C118.192 7.78223 113.901 8.87801 110.158 11.0693C106.481 13.2607 103.61 16.387 101.545 20.4473C99.5448 24.5076 98.5449 29.3734 98.5449 35.0449C98.5449 40.7166 99.5447 45.6154 101.545 49.7402C103.61 53.8003 106.481 56.9259 110.158 59.1172C113.901 61.2441 118.192 62.3076 123.031 62.3076C127.935 62.3076 132.226 61.244 135.903 59.1172C139.581 56.9259 142.452 53.8003 144.517 49.7402C146.581 45.6154 147.614 40.7166 147.614 35.0449C147.614 29.3734 146.581 24.5076 144.517 20.4473C142.452 16.3869 139.581 13.2607 135.903 11.0693C132.226 8.87807 127.935 7.78228 123.031 7.78223ZM343.504 7.78223C338.665 7.78223 334.374 8.87817 330.632 11.0693C326.954 13.2607 324.082 16.3869 322.018 20.4473C320.017 24.5076 319.018 29.3734 319.018 35.0449C319.018 40.7166 320.017 45.6154 322.018 49.7402C324.082 53.8005 326.954 56.9259 330.632 59.1172C334.374 61.244 338.665 62.3076 343.504 62.3076C348.407 62.3076 352.698 61.244 356.376 59.1172C357.695 58.3314 358.907 57.4226 360.019 56.3965L347.858 42.876L353.278 38.1387L364.595 50.4854C364.729 50.2405 364.861 49.9923 364.989 49.7402C367.054 45.6154 368.087 40.7166 368.087 35.0449C368.087 29.3734 367.054 24.5076 364.989 20.4473C362.925 16.3869 360.054 13.2607 356.376 11.0693C352.698 8.87806 348.407 7.78228 343.504 7.78223ZM40.1221 35.7402C42.1812 35.3313 44.3149 35.544 46.2539 36.3457C48.1941 37.1485 49.8557 38.5078 51.0225 40.252C51.2777 40.6336 51.5067 41.0303 51.709 41.4385C51.8102 41.6426 51.9045 41.8498 51.9922 42.0596C52.4304 43.1085 52.6988 44.2235 52.7832 45.3623L52.8105 46.1455C52.808 47.9028 52.3694 49.614 51.5547 51.1357C51.3103 51.5922 51.0321 52.0317 50.7217 52.4502C50.4113 52.8686 50.0685 53.2659 49.6953 53.6387C47.7038 55.628 45.0053 56.7429 42.1895 56.7461C41.9272 56.746 41.6655 56.737 41.4053 56.7178C41.1448 56.6986 40.8855 56.6699 40.6279 56.6318C40.1134 56.5558 39.6059 56.4418 39.1094 56.292C38.861 56.217 38.6154 56.1331 38.373 56.04C37.6461 55.761 36.9485 55.4016 36.2939 54.9648C34.7664 53.9453 33.533 52.5481 32.71 50.917L32.3838 50.2012C31.5812 48.2643 31.367 46.133 31.7764 44.0762C32.0068 42.9189 32.4282 41.8139 33.0166 40.8047C33.1474 40.5804 33.2865 40.3609 33.4336 40.1465C33.8013 39.6106 34.2195 39.1072 34.6836 38.6436C36.1687 37.1601 38.0623 36.1495 40.1221 35.7402Z" fill="white"/>
</g>
<defs>
<clipPath id="clip0_55568_843">
<rect width="382" height="70" fill="white"/>
</clipPath>
</defs>
</svg>
